<svg viewBox="0 0 140 36" xmlns="http://www.w3.org/2000/svg">
  <!-- Background-aware logo for Axeflow -->

  <!-- "A" -->
  <path d="M0 30 L10 6 L14 6 L24 30 L19 30 L16.5 24 L7.5 24 L5 30 Z M12 10 L9 20 L15 20 Z" fill="white"/>

  <!-- "x" - the cross -->
  <path d="M26 6 L33 17 L26 30 L31 30 L36 21 L41 30 L46 30 L39 17 L46 6 L41 6 L36 14 L31 6 Z" fill="white"/>

  <!-- Green leaf accent overlaying the x -->
  <path d="M30 18 Q34 12, 42 8" stroke="#00bf63" stroke-width="4" stroke-linecap="round" fill="none"/>

  <!-- "eflow" using simple shapes -->
  <!-- e -->
  <path d="M50 18 Q50 12, 56 12 Q62 12, 62 18 L62 19 L53 19 Q53 24, 57 24 Q60 24, 61 22 L62 23 Q60 26, 56 26 Q50 26, 50 18 Z M53 17 L60 17 Q59 14, 56 14 Q53 14, 53 17 Z" fill="white"/>

  <!-- f -->
  <path d="M66 30 L66 15 L64 15 L64 12 L66 12 L66 10 Q66 6, 70 6 L72 6 L72 8 L70 8 Q68 8, 68 10 L68 12 L72 12 L72 15 L68 15 L68 30 Z" fill="white"/>

  <!-- l -->
  <path d="M75 30 L75 6 L77 6 L77 30 Z" fill="white"/>

  <!-- o -->
  <path d="M81 19 Q81 12, 88 12 Q95 12, 95 19 Q95 26, 88 26 Q81 26, 81 19 Z M83 19 Q83 24, 88 24 Q93 24, 93 19 Q93 14, 88 14 Q83 14, 83 19 Z" fill="white"/>

  <!-- w -->
  <path d="M99 12 L103 26 L107 12 L110 12 L114 26 L118 12 L121 12 L115 30 L112 30 L108.5 18 L105 30 L102 30 L96 12 Z" fill="white"/>
</svg>
