<svg viewBox="0 0 100 100" xmlns="http://www.w3.org/2000/svg">
  <!-- Truck cab outline -->
  <path d="M20 35h60v10h-60z" fill="none" stroke="#000" stroke-width="4"/>
  <!-- Truck roof lights -->
  <rect x="30" y="28" width="40" height="7" rx="2" fill="#4A90D9"/>
  <g fill="white">
    <circle cx="37" cy="31.5" r="2"/>
    <circle cx="44" cy="31.5" r="2"/>
    <circle cx="51" cy="31.5" r="2"/>
    <circle cx="58" cy="31.5" r="2"/>
    <circle cx="65" cy="31.5" r="2"/>
  </g>
  <!-- Side mirrors -->
  <path d="M18 38c-3 0-5 2-5 5v4h5v-9z" fill="#000"/>
  <path d="M82 38c3 0 5 2 5 5v4h-5v-9z" fill="#000"/>
  <!-- Truck body -->
  <rect x="22" y="45" width="56" height="30" fill="#000"/>
  <!-- CDL LIFE text -->
  <text x="50" y="58" text-anchor="middle" font-family="Arial Black, sans-serif" font-size="12" font-weight="900" fill="white">CDL</text>
  <text x="50" y="70" text-anchor="middle" font-family="Arial Black, sans-serif" font-size="12" font-weight="900" fill="white">LIFE</text>
  <!-- Wheels -->
  <rect x="28" y="75" width="18" height="10" rx="2" fill="#000"/>
  <rect x="54" y="75" width="18" height="10" rx="2" fill="#000"/>
</svg>
